<svg width="34" height="34" fill="none" xmlns="http://www.w3.org/2000/svg"><circle cx="17" cy="17" r="17" fill="#CA297E"/><path d="M13.416 9h7.169A4.42 4.42 0 0125 13.415v7.17A4.42 4.42 0 0120.585 25h-7.17A4.42 4.42 0 019 20.584v-7.169A4.42 4.42 0 0113.416 9zM10.42 20.584a3 3 0 002.995 2.996h7.17a3 3 0 002.995-2.995v-7.17a3 3 0 00-2.995-2.995h-7.17a3 3 0 00-2.995 2.995v7.17z" fill="#fff"/><path d="M17 12.877A4.127 4.127 0 0121.123 17 4.127 4.127 0 0117 21.123 4.127 4.127 0 0112.877 17 4.127 4.127 0 0117 12.877zm0 6.826A2.706 2.706 0 0019.703 17 2.706 2.706 0 0017 14.297 2.706 2.706 0 0014.297 17 2.706 2.706 0 0017 19.703zm-4.296-8.03a1.045 1.045 0 011.041 1.042c0 .273-.111.542-.305.736a1.05 1.05 0 01-.736.305c-.274 0-.542-.112-.736-.305a1.046 1.046 0 010-1.473c.193-.194.462-.304.736-.304z" fill="#fff"/></svg>