<svg width="34" height="34" fill="none" xmlns="http://www.w3.org/2000/svg"><circle cx="17" cy="17" r="17" fill="#64AF1F"/><path d="M22.745 22.774c.315 0 .587-.104.819-.309L19.599 18.5a75.39 75.39 0 00-.274.197c-.297.219-.538.39-.723.512-.185.122-.43.247-.738.375a2.25 2.25 0 01-.859.191h-.016c-.265 0-.551-.064-.859-.191a4.436 4.436 0 01-.738-.375 18.312 18.312 0 01-.722-.512l-.274-.198-3.966 3.966a1.2 1.2 0 00.82.31h11.495zm-11.956-6.771a4.144 4.144 0 01-.789-.68v6.033l3.495-3.494c-.7-.488-1.6-1.107-2.706-1.859zm12.425 0c-1.064.72-1.968 1.34-2.712 1.86l3.493 3.493v-6.032c-.224.25-.485.476-.781.68z" fill="#fff"/><path d="M22.745 11.778H11.25c-.401 0-.71.136-.926.406-.216.27-.324.61-.324 1.015 0 .328.143.684.43 1.066.286.383.59.684.913.902.177.125.711.497 1.601 1.113a542.236 542.236 0 012.163 1.509l.216.155a8.38 8.38 0 00.827.55c.16.094.309.165.45.211.14.047.27.07.39.07h.016c.12 0 .25-.023.39-.07.14-.046.29-.117.449-.21a8.415 8.415 0 00.828-.551 50.173 50.173 0 01.332-.238l.79-.55 2.865-1.989c.38-.265.697-.585.953-.96.254-.375.382-.768.382-1.18 0-.343-.124-.637-.371-.882a1.208 1.208 0 00-.879-.367z" fill="#fff"/></svg>