<svg width="34" height="34" fill="none" xmlns="http://www.w3.org/2000/svg"><circle cx="17" cy="17" r="17" fill="#F26F43"/><g clip-path="url(#clip0)" fill="#fff"><path d="M16.114 20.679c-1.395-.146-2.654-.49-3.73-1.332-.134-.105-.272-.206-.394-.323-.472-.453-.52-.972-.146-1.506.319-.457.855-.58 1.412-.317.107.05.21.114.309.183 2.007 1.38 4.765 1.417 6.78.062.2-.153.413-.278.66-.342.481-.123.93.053 1.188.474.295.48.29.95-.072 1.323-.558.572-1.228.985-1.972 1.274-.704.273-1.476.41-2.24.502.116.125.17.187.242.26 1.037 1.04 2.078 2.078 3.111 3.122.352.356.425.798.232 1.211-.212.453-.687.75-1.152.719-.294-.02-.524-.167-.728-.373-.782-.787-1.58-1.56-2.346-2.361-.223-.234-.33-.19-.527.013-.787.81-1.586 1.608-2.39 2.4-.362.357-.792.42-1.21.218-.446-.216-.73-.67-.707-1.128.015-.309.167-.545.379-.756 1.025-1.025 2.048-2.051 3.072-3.077.067-.069.13-.141.23-.246z"/><path d="M16.964 17.11c-2.49-.008-4.53-2.071-4.516-4.565A4.563 4.563 0 0117.018 8c2.52.007 4.542 2.067 4.529 4.614-.013 2.489-2.068 4.505-4.583 4.497zm2.263-4.559A2.219 2.219 0 0017 10.327a2.222 2.222 0 00-2.231 2.251 2.219 2.219 0 002.242 2.208 2.214 2.214 0 002.215-2.235z"/></g><defs><clipPath id="clip0"><path fill="#fff" transform="translate(8 8)" d="M0 0h18v18H0z"/></clipPath></defs></svg>