<svg width="34" height="34" fill="none" xmlns="http://www.w3.org/2000/svg"><circle cx="17" cy="17" r="17" fill="#1AA0E2"/><path fill-rule="evenodd" clip-rule="evenodd" d="M23.992 9.67l-2.286 13.714a.563.563 0 01-.286.401.547.547 0 01-.49.027l-4.045-1.652-2.16 2.634a.526.526 0 01-.438.206.482.482 0 01-.197-.036.561.561 0 01-.272-.21.558.558 0 01-.103-.326v-3.116l7.714-9.455-9.544 8.259-3.527-1.447a.523.523 0 01-.357-.49.53.53 0 01.286-.527L23.144 9.08a.554.554 0 01.607.018.558.558 0 01.24.572z" fill="#FCFCFC"/></svg>