<svg width="34" height="34" fill="none" xmlns="http://www.w3.org/2000/svg"><circle cx="17" cy="17" r="17" fill="#E1E1E1"/><path fill-rule="evenodd" clip-rule="evenodd" d="M18.632 18.634c-1.406 1.44-1.504 3.244-1.623 7.19 3.672 0 6.217-.012 7.523-1.288 1.275-1.307 1.288-3.972 1.288-7.525-3.946.119-5.75.218-7.188 1.623zM8 17.01c0 3.554.012 6.22 1.288 7.525 1.306 1.276 3.851 1.288 7.524 1.288-.12-3.946-.218-5.75-1.623-7.19-1.44-1.405-3.243-1.504-7.189-1.623zM16.812 8c-3.673 0-6.218.013-7.524 1.288C8.013 10.595 8 13.26 8 16.814c3.946-.12 5.75-.218 7.189-1.624 1.405-1.439 1.504-3.243 1.623-7.19zm1.82 7.19c-1.406-1.439-1.504-3.243-1.623-7.19 3.672 0 6.217.013 7.523 1.288 1.275 1.307 1.288 3.972 1.288 7.526-3.946-.12-5.75-.218-7.188-1.624z" fill="#2C3036"/><path fill-rule="evenodd" clip-rule="evenodd" d="M18.632 18.634c-1.406 1.44-1.504 3.244-1.623 7.19 3.672 0 6.217-.012 7.523-1.288 1.275-1.307 1.288-3.972 1.288-7.525-3.946.119-5.75.218-7.188 1.623zM8 17.01c0 3.554.012 6.22 1.288 7.525 1.306 1.276 3.851 1.288 7.524 1.288-.12-3.946-.218-5.75-1.623-7.19-1.44-1.405-3.243-1.504-7.189-1.623zM16.812 8c-3.673 0-6.218.013-7.524 1.288C8.013 10.595 8 13.26 8 16.814c3.946-.12 5.75-.218 7.189-1.624 1.405-1.439 1.504-3.243 1.623-7.19zm1.82 7.19c-1.406-1.439-1.504-3.243-1.623-7.19 3.672 0 6.217.013 7.523 1.288 1.275 1.307 1.288 3.972 1.288 7.526-3.946-.12-5.75-.218-7.188-1.624z" fill="url(#paint0_linear)"/><defs><linearGradient id="paint0_linear" x1="25.82" y1="25.824" x2="25.82" y2="8" gradientUnits="userSpaceOnUse"><stop stop-color="#fff" stop-opacity=".01"/><stop offset=".475" stop-color="#fff" stop-opacity=".01"/><stop offset=".76" stop-color="#fff" stop-opacity=".043"/><stop offset=".995" stop-color="#fff" stop-opacity=".099"/><stop offset="1" stop-color="#fff" stop-opacity=".1"/></linearGradient></defs></svg>