<svg width="284" height="180" fill="none" xmlns="http://www.w3.org/2000/svg"><path d="M258.546 1L1 53.306l24.545 125.015 257.546-52.307z"/><path d="M131.198 84.448c.193 2.83.384 5.646.571 8.449a56.169 56.169 0 01-4.066-.335c-.096-1.596-.196-3.185-.288-4.763a45.673 45.673 0 01-13.526-4.068l.243 5.116a46.133 46.133 0 01-3.804-1.942c-.135-3.11-.269-6.24-.401-9.387.686.431 1.377.842 2.073 1.231.961-1.255 1.486-3.748 1.372-6.907a784.356 784.356 0 01-.459-9.207c4.659 2.833 9.697 4.795 14.9 5.803.314 5.288.631 10.54.952 15.755.801.103 1.61.186 2.421.251l.012.004zm-7.274-13.09a44.344 44.344 0 01-6.95-2.541c.077 1.642.152 3.272.233 4.901.12 2.386-.084 5.37-.819 7.187a45.17 45.17 0 008.222 2.592c-.234-4.02-.463-8.065-.686-12.139m25.073 12.052a83.053 83.053 0 01-10.214 1.177l-1.262 3.758a61.22 61.22 0 01-4.47.014c2.187-6.251 4.379-12.533 6.575-18.847a71.176 71.176 0 006.382-.443 343.744 343.744 0 009.536 16.566c-1.562.376-3.129.73-4.704 1.042l-1.859-3.234.016-.033zm-9.053-2.451a71.691 71.691 0 007.305-.77 366.154 366.154 0 01-4.314-8.308c-1 3.01-1.997 6.036-2.991 9.078zm34.27-6.489c.343 3.82-2.533 6.535-6.401 7.763a251.45 251.45 0 01-9.083 2.658c-.5-5.884-.995-11.805-1.485-17.763a153.33 153.33 0 007.731-2.01c3.642-1.045 6.798-.817 7.097 2.777a4.73 4.73 0 01-.344 1.889c-.24.59-.598 1.11-1.047 1.524 1.833.135 3.346 1.25 3.514 3.154l.018.009zm-8.891-2.577c1.413-.418 2.653-1.187 2.541-2.423-.088-1.03-.869-1.504-2.582-1-1.183.341-2.368.671-3.544.988l.288 3.374 3.297-.939zm.865 2.98c-1.298.39-2.577.769-3.897 1.132.128 1.456.25 2.906.376 4.35 1.395-.397 2.797-.82 4.196-1.253 2.145-.663 3.007-1.663 2.873-3.177-.122-1.42-1.255-1.745-3.548-1.052m27.481-4.756a567.147 567.147 0 00-10.593 3.534l-1.297 3.968-4.733 1.608 6.786-20.12 6.675-2.271c3.288 4.839 6.57 9.733 9.824 14.79-1.58.452-3.161.926-4.743 1.423-.639-.974-1.279-1.951-1.919-2.932zm-9.392-.307a853.58 853.58 0 017.602-2.55c-1.508-2.337-3.02-4.66-4.536-6.968l-3.066 9.518zm37.329-20.943c.474 6.102.927 12.249 1.361 18.44a77.775 77.775 0 00-4.323.417c-.403-5.277-.806-10.529-1.209-15.755-2.161 5.657-4.335 11.342-6.521 17.055-2.462.499-4.929 1.107-7.407 1.77a8109.04 8109.04 0 00-1.505-17.585 168.68 168.68 0 014.463-1.259c.43 5.1.857 10.216 1.282 15.349 2.212-5.767 4.418-11.509 6.618-17.225a96.861 96.861 0 017.241-1.207zm-5.379-4.638c-.623 2.794-2.08 4.348-4.853 4.987-2.772.64-4.444-.172-5.529-2.494 1.221-.34 2.44-.662 3.657-.969.209.233.473.396.759.472.287.075.585.06.859-.047a1.9 1.9 0 00.875-.388c.257-.203.465-.472.608-.785 1.212-.273 2.421-.53 3.625-.77m-94.049 70.17a7.242 7.242 0 005.448-1.103l.291 4.418a9.059 9.059 0 01-5.482.875c-5.905-.799-10.111-6.757-10.422-13.298-.319-6.974 3.335-8.81 9.201-7.346 1.974.458 3.869 1.3 5.592 2.484.099 1.498.188 2.975.286 4.473-1.689-1.328-3.609-2.247-5.628-2.693-3.432-.782-5.53.661-5.32 4.692.208 3.827 2.791 7.04 6.044 7.55m37.41-18.829c.499 5.856 1.002 11.694 1.508 17.513-1.492.458-2.982.898-4.47 1.32-.211-2.513-.423-5.031-.637-7.556-3.314.9-6.608 1.681-9.878 2.301l.616 7.698c-1.469.297-2.932.57-4.389.816-.463-6.044-.934-12.127-1.412-18.248a89.704 89.704 0 004.351-.592l.523 6.7a118.706 118.706 0 009.862-2.219l-.549-6.55a152.24 152.24 0 004.452-1.19m21.362 7.454c-3.538 1.198-7.077 2.419-10.607 3.603l-1.297 3.962c-1.571.523-3.144 1.04-4.711 1.555l6.775-20.062c2.223-.733 4.444-1.501 6.675-2.248 3.293 4.814 6.589 9.615 9.866 14.511a482.012 482.012 0 00-4.769 1.567c-.643-.965-1.289-1.923-1.93-2.876l-.002-.012zm-9.408-.249c2.533-.85 5.065-1.723 7.601-2.585-1.508-2.312-3.026-4.616-4.529-6.904l-3.072 9.489zm43.89-23.42c.469 6.07.928 12.18 1.377 18.329a84.355 84.355 0 00-4.265.49c-.403-5.253-.81-10.477-1.223-15.672l-4.173 16.59c-2.128.43-4.274.913-6.424 1.456-2.25-4.643-4.531-9.165-6.8-13.653.435 5.03.87 10.068 1.304 15.114a255.55 255.55 0 00-4.395 1.322c-.497-5.787-.991-11.562-1.484-17.326a309.62 309.62 0 017.703-2.407 697.043 697.043 0 016.719 13.82l4.163-16.695a102.611 102.611 0 017.519-1.372m23.412.918c.373 6.658.733 13.386 1.082 20.182a43.488 43.488 0 00-4.073-1.271c-.32-5.766-.649-11.48-.985-17.143a4866.94 4866.94 0 00-6.323 15.803 56.795 56.795 0 00-7.047-.29 6587.8 6587.8 0 00-1.328-18.664 66.629 66.629 0 014.294-.212c.378 5.429.748 10.896 1.112 16.4 2.154-5.4 4.298-10.753 6.43-16.06 2.298.252 4.582.67 6.838 1.254m9.278 16.831a46.61 46.61 0 00-3.941-2.047c-.212-4.422-.429-8.818-.652-13.186a44.584 44.584 0 013.994 1.758c.205 4.46.404 8.952.599 13.474zm-1.833 1.184c-1.23-.669-2.25.135-2.173 1.748.08.84.342 1.653.766 2.371.423.718.995 1.32 1.667 1.754 1.241.727 2.198.021 2.118-1.634-.08-1.655-1.115-3.589-2.382-4.256" fill="#201600"/></svg>