<svg width="173" height="29" fill="none" xmlns="http://www.w3.org/2000/svg"><path fill-rule="evenodd" clip-rule="evenodd" d="M161.104 27.795h10.331a1.48 1.48 0 001.477-1.485v-3.712a1.48 1.48 0 00-1.477-1.485h-10.331a1.48 1.48 0 00-1.477 1.485v3.712c0 .82.661 1.485 1.477 1.485z" fill="#812990"/><path fill-rule="evenodd" clip-rule="evenodd" d="M127.89 27.795h23.616a1.48 1.48 0 001.477-1.485v-3.712a1.48 1.48 0 00-1.477-1.485H127.89a1.48 1.48 0 00-1.477 1.485v3.712c0 .82.661 1.485 1.477 1.485z" fill="#0066B3"/><path fill-rule="evenodd" clip-rule="evenodd" d="M107.961 27.795h10.332c.815 0 1.477-.665 1.477-1.485v-3.712c0-.82-.662-1.485-1.477-1.485h-10.332c-.815 0-1.477.665-1.477 1.485v3.712c0 .82.662 1.485 1.477 1.485z" fill="#33A3DC"/><path fill-rule="evenodd" clip-rule="evenodd" d="M74.748 27.795h23.616c.394.003.772-.152 1.052-.43a1.49 1.49 0 00.436-1.055v-3.712c0-.82-.66-1.485-1.477-1.485H74.749a1.48 1.48 0 00-1.477 1.485v3.712c0 .82.661 1.485 1.477 1.485z" fill="#45B97C"/><path fill-rule="evenodd" clip-rule="evenodd" d="M54.819 27.795H65.15a1.48 1.48 0 001.477-1.485v-3.712a1.48 1.48 0 00-1.477-1.485H54.82c-.392 0-.767.157-1.044.435a1.49 1.49 0 00-.433 1.05v3.712c0 .82.661 1.485 1.477 1.485z" fill="#FFCC31"/><path fill-rule="evenodd" clip-rule="evenodd" d="M1.677 27.795h10.33c.816 0 1.478-.665 1.478-1.485v-3.712c0-.82-.662-1.485-1.477-1.485H1.677A1.48 1.48 0 00.2 22.598v3.712c0 .82.66 1.485 1.477 1.485z" fill="#ED1846"/><path fill-rule="evenodd" clip-rule="evenodd" d="M21.596 27.795h23.616a1.48 1.48 0 001.477-1.485v-3.712a1.48 1.48 0 00-1.477-1.485H21.596a1.48 1.48 0 00-1.477 1.485v3.712c0 .82.661 1.485 1.477 1.485z" fill="#FBB306"/><path d="M98.141 1.062h-5.425a.4.4 0 00-.406.402v11.465c.003.4.164.782.447 1.062.283.28.665.436 1.063.433h1.785a.4.4 0 00.407-.402v-3.3h2.129c3.251 0 4.818-2.268 4.818-4.85 0-2.537-1.857-4.815-4.818-4.815v.005zm-.743 6.563h-1.393V4.122h1.446c1.096 0 1.716.668 1.716 1.73 0 1.063-.62 1.768-1.776 1.768m35.594 3.719h-.249v-9.88a.404.404 0 00-.406-.402h-7.895a1.511 1.511 0 00-1.519 1.502v1.955c0 2.252-.03 4.765-1.231 6.832h-.204a1.417 1.417 0 00-1.428 1.401v3.468a.403.403 0 00.406.402h2.496a.406.406 0 00.407-.402v-1.812h7.742v1.812a.403.403 0 00.406.402h2.494a.404.404 0 00.407-.402v-3.459a1.419 1.419 0 00-1.426-1.401v-.016zm-3.929.037h-3.648c.866-1.894 1.024-4.503 1.024-6.565v-.675h2.169c.311 0 .464.142.464.45l-.009 6.79zm18.839-10.314h-2.187c-1.015 0-1.428.287-1.739 1.187l-1.733 4.55-1.999-4.55c-.393-.879-.745-1.187-1.737-1.187h-2.341a.4.4 0 00-.348.194.404.404 0 00-.009.4l4.688 8.723a1.303 1.303 0 01-1.233.899 1.899 1.899 0 01-1.033-.343.403.403 0 00-.562.133l-1.206 2.004a.387.387 0 00.084.511c.787.598 2.06 1.007 3.298 1.007 1.096 0 1.964-.285 2.584-.878a6.515 6.515 0 001.53-2.23l4.317-9.866a.4.4 0 00-.374-.558m10.694.004h-6.985a1.511 1.511 0 00-1.519 1.502v11.458a.405.405 0 00.406.402h2.892a.405.405 0 00.406-.402V4.126h4.8a.4.4 0 00.406-.401V1.459a.404.404 0 00-.406-.402m13.916.005h-2.452a1.52 1.52 0 00-1.305.736l-4.152 6.504v-5.75a1.51 1.51 0 00-.447-1.062 1.493 1.493 0 00-1.062-.433h-1.786a.405.405 0 00-.406.402v12.559a.405.405 0 00.406.401h2.471a1.523 1.523 0 001.307-.738l4.131-6.54v5.786a1.502 1.502 0 001.51 1.492h1.785a.404.404 0 00.407-.402V1.46a.404.404 0 00-.407-.402M24.18 1.062h-8.083a1.511 1.511 0 00-1.519 1.502v3.305c0 3.86-.25 4.972-2.062 5.428a.41.41 0 00-.332.387v2.502a.415.415 0 00.428.408c3.998-.196 5.461-1.966 5.461-8.683V4.13h2.362a.45.45 0 01.464.45v9.441a.406.406 0 00.407.402h2.889a.4.4 0 00.406-.402V1.46a.405.405 0 00-.406-.402m18.983.004H40.29a.4.4 0 00-.406.402V14.02a.405.405 0 00.406.402h2.89a.4.4 0 00.405-.402V1.46a.405.405 0 00-.406-.403m8.974 4.928H50.48V4.117h5.464a.4.4 0 00.406-.402V1.45a.406.406 0 00-.406-.402h-8.76a.403.403 0 00-.408.402v11.465c.004.4.165.781.449 1.061.283.28.666.435 1.063.432h3.824c3.969 0 5.625-1.918 5.625-4.33 0-2.7-2.032-4.102-5.573-4.102l-.01.01zm.318 5.459h-1.528c-.31 0-.464-.145-.464-.451V8.956h2.002c.928 0 1.449.505 1.449 1.226 0 .722-.54 1.262-1.47 1.262M32.914 5.42h-1.493V1.45a.405.405 0 00-.406-.402h-2.89a.4.4 0 00-.405.402v11.465a1.502 1.502 0 001.509 1.493h3.643c3.969 0 5.625-2.049 5.625-4.623 0-2.882-2.032-4.374-5.574-4.374l-.009.01zm.318 6.024h-1.347c-.308 0-.464-.176-.464-.552v-2.48h1.823c.929 0 1.449.617 1.449 1.5 0 .882-.539 1.541-1.47 1.541M12.145 1.062h-2.19c-1.012 0-1.426.287-1.737 1.187l-1.732 4.55-2-4.55c-.392-.879-.745-1.187-1.737-1.187H.41a.404.404 0 00-.358.593l4.689 8.728a1.304 1.304 0 01-1.234.9 1.893 1.893 0 01-1.024-.337.4.4 0 00-.566.12l-1.22 2.006c-.1.173-.06.394.096.52.79.594 2.055.998 3.288.998 1.096 0 1.965-.285 2.585-.878a6.518 6.518 0 001.53-2.23l4.317-9.866a.404.404 0 00-.367-.554zm73.078 0h-2.875a.414.414 0 00-.413.416v.808C80.995 1.412 79.7.885 78.003.885c-3.316 0-6.002 3.069-6.002 6.855 0 3.785 2.686 6.854 6.002 6.854 1.733 0 3.054-.558 4.006-1.485a1.936 1.936 0 001.776 1.31h1.438a.412.412 0 00.41-.413V1.473a.414.414 0 00-.41-.41zM78.876 11.34c-1.962 0-3.162-1.617-3.162-3.611 0-1.995 1.29-3.613 3.162-3.613 1.99 0 3.166 1.618 3.166 3.613 0 1.994-1.082 3.61-3.163 3.61M68.93 8.863a2.396 2.396 0 00-1.49-1.261 2.412 2.412 0 001.49-1.264l2.36-4.699a.404.404 0 00-.365-.582h-3.118a.416.416 0 00-.372.234l-2.09 4.33c-.232.45-.62.45-1.138.45h-.487V2.553a1.51 1.51 0 00-.447-1.062 1.493 1.493 0 00-1.063-.433h-1.785a.405.405 0 00-.407.402v12.559a.405.405 0 00.407.401h2.888a.4.4 0 00.407-.402V9.13h.497c.518 0 .91 0 1.138.451l2.22 4.606a.408.408 0 00.371.233h3.116a.404.404 0 00.365-.58l-2.496-4.976zm48.722-7.801h-2.878a.415.415 0 00-.411.416v.808c-.942-.874-2.233-1.401-3.933-1.401-3.314 0-6.003 3.069-6.003 6.855 0 3.785 2.689 6.854 6.003 6.854 1.734 0 3.056-.558 4.008-1.485.263.766.97 1.288 1.776 1.31h1.438a.414.414 0 00.413-.413V1.473a.414.414 0 00-.413-.416v.005zm-6.344 10.272c-1.963 0-3.166-1.616-3.166-3.61 0-1.995 1.294-3.614 3.166-3.614 1.99 0 3.165 1.619 3.165 3.613 0 1.995-1.087 3.616-3.165 3.616" fill="#ED1846"/></svg>