<svg width="34" height="34" fill="none" xmlns="http://www.w3.org/2000/svg"><circle cx="17" cy="17" r="17" fill="#665EAA"/><path d="M26.25 11.815l-.005-.023c-.464-1.877-2.558-3.892-4.48-4.31l-.022-.005a24.9 24.9 0 00-9.372 0l-.022.004c-1.922.42-4.016 2.434-4.48 4.311l-.006.023a18.345 18.345 0 000 7.902l.005.023c.445 1.797 2.383 3.72 4.234 4.248v2.095c0 .759.924 1.131 1.45.584l2.123-2.207a24.989 24.989 0 006.068-.405l.022-.004c1.922-.42 4.016-2.434 4.48-4.31l.006-.024c.574-2.621.574-5.28 0-7.902zm-1.68 7.522c-.31 1.225-1.9 2.747-3.162 3.029a23.18 23.18 0 01-4.985.402.118.118 0 00-.088.036l-1.55 1.592-1.65 1.692a.193.193 0 01-.332-.133v-3.472a.12.12 0 00-.097-.117c-1.264-.282-2.853-1.804-3.163-3.029a16.646 16.646 0 010-7.142c.31-1.225 1.9-2.747 3.162-3.029a23.19 23.19 0 018.703 0c1.264.282 2.853 1.804 3.163 3.03a16.633 16.633 0 010 7.141z" fill="#fff"/><path d="M19.804 20.94c-.194-.06-.379-.1-.55-.17-1.782-.74-3.42-1.692-4.719-3.153-.738-.831-1.316-1.77-1.804-2.762-.232-.47-.427-.96-.626-1.446-.181-.443.086-.9.367-1.235a2.9 2.9 0 01.972-.73c.287-.138.57-.058.78.185.454.526.87 1.08 1.207 1.69.208.375.15.833-.225 1.089-.091.062-.175.135-.26.205a.852.852 0 00-.196.206.566.566 0 00-.038.498c.464 1.273 1.245 2.264 2.527 2.797.205.086.411.185.648.157.395-.046.524-.48.801-.707.271-.221.618-.224.91-.04.292.185.575.384.856.584.277.197.552.39.806.614.246.216.33.5.192.792-.253.536-.62.982-1.15 1.267-.15.08-.329.107-.498.159-.194-.06.17-.053 0 0zm-2.742-10.11c2.329.066 4.242 1.612 4.652 3.915.07.392.095.793.126 1.191.013.168-.082.327-.263.33-.186.002-.27-.155-.283-.322-.024-.332-.04-.665-.086-.993-.241-1.735-1.625-3.17-3.352-3.479-.26-.046-.526-.058-.789-.086-.166-.018-.384-.028-.421-.234-.03-.174.116-.312.28-.32.045-.004.09-.002.136-.001 2.329.065-.046 0 0 0z" fill="#fff"/><path d="M20.602 15.42c-.004.029-.006.097-.024.161-.061.234-.416.263-.497.027a.7.7 0 01-.028-.225 2.82 2.82 0 00-.357-1.415 2.636 2.636 0 00-1.105-1.036 3.172 3.172 0 00-.88-.27c-.133-.023-.267-.036-.4-.055-.162-.022-.249-.125-.24-.284a.25.25 0 01.278-.248c.534.03 1.05.146 1.526.398.966.512 1.518 1.32 1.68 2.398.007.05.019.098.022.147.01.12.015.242.024.401-.003.03-.009-.16 0 0z" fill="#fff"/><path d="M19.153 15.363c-.195.004-.3-.104-.32-.283-.013-.124-.025-.25-.054-.372a1.047 1.047 0 00-.387-.606 1.011 1.011 0 00-.314-.152c-.143-.041-.292-.03-.434-.065-.155-.038-.24-.163-.216-.309a.28.28 0 01.295-.225c.903.066 1.548.533 1.64 1.596.007.075.015.154-.002.226-.029.123-.12.184-.208.19-.195.004.088-.006 0 0z" fill="#fff"/></svg>