<svg width="34" height="34" fill="none" xmlns="http://www.w3.org/2000/svg"><circle cx="17" cy="17" r="17" fill="#4277A5"/><g clip-path="url(#clip0)"><path d="M25.905 21.14a1.236 1.236 0 00-.061-.117c-.313-.563-.91-1.253-1.79-2.072l-.02-.018-.008-.01-.01-.01h-.01c-.4-.38-.652-.637-.758-.768-.194-.25-.238-.503-.132-.759.075-.194.357-.603.844-1.228.256-.33.459-.596.609-.796 1.08-1.437 1.55-2.356 1.406-2.755l-.056-.094c-.038-.056-.134-.108-.29-.155a1.497 1.497 0 00-.6-.023l-2.7.019a.35.35 0 00-.187.004l-.122.029-.047.023-.037.028a.416.416 0 00-.103.099.645.645 0 00-.094.164 15.29 15.29 0 01-1.003 2.108c-.23.388-.443.723-.637 1.008a4.843 4.843 0 01-.487.628c-.132.134-.25.241-.356.323-.107.081-.188.116-.244.103a6.869 6.869 0 01-.16-.038.622.622 0 01-.21-.23 1.028 1.028 0 01-.108-.365 4.059 4.059 0 01-.028-.83 17.1 17.1 0 00.01-.393c0-.237.004-.495.013-.773.01-.278.017-.498.024-.66.006-.163.009-.335.009-.516s-.011-.323-.033-.427a1.465 1.465 0 00-.098-.3.506.506 0 00-.192-.224 1.085 1.085 0 00-.314-.127c-.331-.075-.753-.115-1.265-.122-1.162-.012-1.91.063-2.24.225a1.28 1.28 0 00-.356.281c-.113.138-.129.213-.047.225.375.056.64.19.796.403l.057.113c.043.08.087.225.13.43.045.207.073.435.085.685.031.456.031.847 0 1.171-.031.325-.06.578-.089.76a1.516 1.516 0 01-.239.646.163.163 0 01-.047.047.704.704 0 01-.253.047c-.087 0-.194-.044-.318-.131a2.253 2.253 0 01-.39-.361 4.833 4.833 0 01-.454-.642 11.21 11.21 0 01-.525-.975l-.15-.272a23.52 23.52 0 01-.384-.764 14.693 14.693 0 01-.43-.97.618.618 0 00-.226-.3l-.047-.028a.644.644 0 00-.15-.08.998.998 0 00-.215-.06l-2.568.018c-.262 0-.44.06-.534.179l-.038.056a.303.303 0 00-.028.15c0 .069.019.153.056.253.375.88.783 1.73 1.223 2.549.44.819.823 1.478 1.148 1.977.325.5.656.972.994 1.415.337.444.56.728.67.853.11.125.195.219.258.282l.234.224c.15.15.37.33.66.54.291.209.613.415.966.618s.764.368 1.232.497c.469.128.925.18 1.369.154h1.077c.219-.019.385-.087.497-.206l.037-.047a.623.623 0 00.07-.173.953.953 0 00.033-.258 3.09 3.09 0 01.061-.726c.047-.215.1-.378.16-.487a1.2 1.2 0 01.36-.413.614.614 0 01.075-.032c.15-.05.327-.002.53.145s.394.328.572.543c.178.216.392.458.642.727.25.268.468.468.656.6l.187.112c.125.075.288.144.488.206.2.063.374.078.524.047l2.4-.037c.237 0 .421-.04.552-.117.132-.079.21-.165.235-.258a.725.725 0 00.005-.319 1.173 1.173 0 00-.066-.248z" fill="#fff"/></g><defs><clipPath id="clip0"><path fill="#fff" transform="translate(8 8)" d="M0 0h18v18H0z"/></clipPath></defs></svg>