<svg width="34" height="34" fill="none" xmlns="http://www.w3.org/2000/svg"><circle cx="17" cy="17" r="17" fill="#ED1846"/><path d="M25.298 11.754c-.65-.773-1.849-1.088-4.14-1.088h-8.316c-2.344 0-3.564.336-4.21 1.158C8 12.626 8 13.807 8 15.442v3.116c0 3.168.749 4.776 4.842 4.776h8.316c1.987 0 3.088-.278 3.8-.96.73-.699 1.042-1.84 1.042-3.816v-3.116c0-1.724-.049-2.913-.702-3.688zm-5.742 5.676l-3.776 1.974a.581.581 0 01-.85-.515v-3.934a.58.58 0 01.848-.516l3.777 1.961a.58.58 0 01.001 1.03z" fill="#fff"/></svg>