<svg width="284" height="180" viewBox="0 0 284 180" fill="none" xmlns="http://www.w3.org/2000/svg">
<rect width="262.806" height="127.402" transform="matrix(-0.979987 0.199029 0.192658 0.98126 258.546 1)"/>
<path d="M131.198 84.4477C131.391 87.2776 131.582 90.0938 131.769 92.8966C130.409 92.8344 129.054 92.7229 127.703 92.5623C127.607 90.9664 127.507 89.3774 127.415 87.7989C122.771 87.1671 118.214 85.7968 113.889 83.7314C113.971 85.4387 114.052 87.144 114.132 88.8474C112.856 88.2699 111.588 87.6225 110.328 86.9051C110.193 83.7944 110.059 80.6653 109.927 77.5177C110.613 77.9494 111.304 78.36 112 78.7495C112.961 77.4943 113.486 75.0013 113.372 71.8421C113.201 68.7747 113.048 65.7057 112.913 62.6351C117.572 65.4683 122.61 67.4303 127.813 68.4375C128.127 73.7262 128.444 78.9779 128.765 84.1928C129.566 84.2957 130.375 84.3791 131.186 84.4441L131.198 84.4477ZM123.924 71.3583C121.555 70.7116 119.231 69.8618 116.974 68.817C117.051 70.4587 117.126 72.0889 117.207 73.718C117.327 76.1045 117.123 79.0871 116.388 80.9053C119.06 82.0356 121.812 82.9029 124.61 83.4966C124.376 79.4777 124.147 75.4316 123.924 71.3583" fill="#201600"/>
<path d="M148.997 83.4103C145.621 84.0131 142.211 84.4061 138.783 84.5874L137.521 88.3448C136.02 88.404 134.53 88.4088 133.051 88.3591C135.238 82.1079 137.43 75.8256 139.626 69.5122C141.74 69.4614 143.867 69.3136 146.008 69.0687C149.14 74.891 152.325 80.3717 155.544 85.635C153.982 86.0115 152.415 86.3647 150.84 86.6775C150.22 85.5995 149.601 84.5215 148.981 83.4435L148.997 83.4103ZM139.944 80.9586C142.356 80.8253 144.779 80.5816 147.249 80.1898C145.801 77.4866 144.362 74.717 142.935 71.8811C141.935 74.8915 140.938 77.9173 139.944 80.9586Z" fill="#201600"/>
<path d="M174.214 74.4706C174.557 78.2908 171.681 81.0047 167.813 82.2333C164.776 83.1913 161.738 84.0651 158.73 84.8909C158.23 79.0071 157.735 73.0861 157.245 67.1279C159.809 66.5367 162.388 65.858 164.976 65.1172C168.618 64.0728 171.774 64.3009 172.073 67.8953C172.087 68.5493 171.97 69.194 171.729 69.7837C171.489 70.3734 171.131 70.8938 170.682 71.308C172.515 71.4426 174.028 72.5573 174.196 74.4622L174.214 74.4706ZM165.323 71.8931C166.736 71.4746 167.976 70.7057 167.864 69.47C167.776 68.4402 166.995 67.9661 165.282 68.4694C164.099 68.8111 162.914 69.1413 161.738 69.4578L162.026 72.8316L165.323 71.8931V71.8931ZM166.188 74.8731C164.89 75.2624 163.611 75.6418 162.291 76.0054C162.419 77.4606 162.541 78.9111 162.667 80.3547C164.062 79.9578 165.464 79.5356 166.863 79.1019C169.008 78.4387 169.87 77.4393 169.736 75.9251C169.614 74.5046 168.481 74.1802 166.188 74.8731" fill="#201600"/>
<path d="M193.669 70.1167C190.144 71.2452 186.611 72.4416 183.076 73.6507L181.779 77.6189L177.046 79.2268L183.832 59.1073L190.507 56.8357C193.795 61.6748 197.077 66.5692 200.331 71.6257C198.751 72.0779 197.17 72.5523 195.588 73.049C194.949 72.0754 194.309 71.098 193.669 70.1167ZM184.277 69.8099C186.833 68.9436 189.349 68.0915 191.879 67.2604C190.371 64.9226 188.859 62.5996 187.343 60.2916L184.277 69.8099Z" fill="#201600"/>
<path d="M221.606 48.8671C222.08 54.9694 222.533 61.116 222.967 67.3069C221.531 67.405 220.09 67.5441 218.644 67.7244C218.241 62.4466 217.838 57.195 217.435 51.9695C215.274 57.6258 213.1 63.3107 210.914 69.0242C208.452 69.5226 205.985 70.1306 203.507 70.7949C203.01 64.9099 202.508 59.0479 202.002 53.2089C203.491 52.7671 204.979 52.3475 206.465 51.9502C206.895 57.0499 207.322 62.1662 207.747 67.2989C209.959 61.532 212.165 55.7903 214.365 50.0739C216.795 49.5819 219.208 49.1657 221.606 48.8671V48.8671ZM216.227 44.2293C215.604 47.0231 214.147 48.5766 211.374 49.2161C208.602 49.8557 206.93 49.044 205.845 46.7225C207.066 46.3829 208.285 46.0598 209.502 45.7533C209.711 45.9857 209.975 46.1493 210.261 46.2248C210.548 46.3002 210.846 46.2841 211.12 46.1785C211.437 46.1272 211.737 45.9942 211.995 45.7904C212.252 45.5866 212.46 45.3176 212.603 45.0052C213.815 44.7316 215.024 44.4749 216.228 44.2351" fill="#201600"/>
<path d="M122.179 114.405C124.078 114.775 126.013 114.383 127.627 113.302C127.724 114.777 127.822 116.25 127.918 117.72C126.221 118.579 124.319 118.883 122.436 118.595C116.531 117.796 112.325 111.838 112.014 105.297C111.695 98.3233 115.349 96.4871 121.215 97.951C123.189 98.409 125.084 99.2502 126.807 100.435C126.906 101.933 126.995 103.41 127.093 104.908C125.404 103.58 123.484 102.661 121.465 102.215C118.033 101.433 115.935 102.876 116.145 106.907C116.353 110.734 118.936 113.947 122.189 114.457" fill="#201600"/>
<path d="M159.599 95.6278C160.098 101.484 160.601 107.322 161.107 113.141C159.615 113.599 158.125 114.039 156.637 114.461C156.426 111.948 156.214 109.43 156 106.905C152.686 107.805 149.392 108.586 146.122 109.206L146.738 116.904C145.269 117.201 143.806 117.474 142.349 117.72C141.886 111.676 141.415 105.593 140.937 99.472C142.385 99.3112 143.835 99.1138 145.288 98.88C145.463 101.119 145.638 103.352 145.811 105.58C149.077 104.991 152.368 104.253 155.673 103.361C155.491 101.183 155.308 98.9998 155.124 96.8105C156.608 96.438 158.091 96.0414 159.576 95.6205" fill="#201600"/>
<path d="M180.938 103.075C177.4 104.273 173.861 105.494 170.331 106.678L169.034 110.64C167.463 111.163 165.89 111.68 164.323 112.195L171.098 92.1329C173.321 91.4003 175.542 90.6318 177.773 89.8855C181.066 94.6992 184.362 99.5004 187.639 104.396C186.05 104.91 184.461 105.43 182.87 105.963C182.227 104.998 181.581 104.04 180.94 103.087L180.938 103.075ZM171.53 102.826C174.063 101.976 176.595 101.103 179.131 100.241C177.623 97.9289 176.105 95.6251 174.602 93.3367L171.53 102.826Z" fill="#201600"/>
<path d="M215.42 79.4065C215.889 85.4757 216.348 91.5851 216.797 97.7347C215.382 97.8587 213.959 98.0263 212.532 98.225C212.129 92.9719 211.722 87.748 211.309 82.5532L207.136 99.1426C205.008 99.5734 202.862 100.056 200.712 100.599C198.462 95.9563 196.181 91.4341 193.912 86.9456C194.347 91.9756 194.782 97.0137 195.216 102.06C193.757 102.482 192.291 102.928 190.821 103.382C190.324 97.5952 189.83 91.8197 189.337 86.0558C191.898 85.2189 194.466 84.4167 197.04 83.6492C199.295 88.1587 201.535 92.7654 203.759 97.4694L207.922 80.7738C210.44 80.222 212.949 79.7564 215.441 79.4023" fill="#201600"/>
<path d="M238.853 80.3194C239.226 86.9784 239.586 93.706 239.935 100.502C238.593 100.009 237.243 99.5896 235.862 99.2307C235.542 93.4647 235.213 87.7505 234.877 82.0881C232.778 87.3078 230.67 92.5754 228.554 97.891C226.208 97.6481 223.855 97.5512 221.507 97.6007C221.07 91.3324 220.627 85.1113 220.179 78.9374C221.619 78.8205 223.047 78.7484 224.473 78.7248C224.851 84.1539 225.221 89.6206 225.585 95.1249C227.739 89.7253 229.883 84.3721 232.015 79.0653C234.313 79.3167 236.597 79.7356 238.853 80.3194" fill="#201600"/>
<path d="M248.131 97.1494C246.83 96.3943 245.516 95.7122 244.19 95.1031C243.978 90.6805 243.761 86.2852 243.538 81.9171C244.884 82.4297 246.212 83.0184 247.532 83.6752C247.737 88.1354 247.936 92.6268 248.131 97.1494ZM246.298 98.3342C245.068 97.6652 244.048 98.4686 244.125 100.082C244.205 100.922 244.467 101.735 244.891 102.453C245.314 103.171 245.886 103.773 246.558 104.207C247.799 104.934 248.756 104.228 248.676 102.573C248.596 100.918 247.561 98.9842 246.294 98.3168" fill="#201600"/>
</svg>
