<svg width="18" height="17" viewBox="0 0 18 17" fill="none" xmlns="http://www.w3.org/2000/svg">
<g clip-path="url(#clip0)">
<path d="M0.931424 17C0.707678 17 0.483932 16.9149 0.313937 16.7434C-0.0273343 16.4019 -0.0273343 15.8481 0.313937 15.5066L15.5517 0.256166C15.893 -0.0853887 16.4462 -0.0853887 16.7875 0.256166C17.1288 0.597721 17.1288 1.15147 16.7875 1.49324L1.54998 16.7434C1.3787 16.9138 1.15496 17 0.931424 17V17Z" fill="#239FB3"/>
<path d="M16.1702 17C15.9465 17 15.723 16.9149 15.5527 16.7434L0.313937 1.49324C-0.0273343 1.15147 -0.0273343 0.597721 0.313937 0.256166C0.655207 -0.0853887 1.20849 -0.0853887 1.54998 0.256166L16.7875 15.5066C17.1288 15.8481 17.1288 16.4019 16.7875 16.7434C16.6162 16.9138 16.3927 17 16.1702 17Z" fill="#239FB3"/>
</g>
<defs>
<clipPath id="clip0">
<rect width="16.9858" height="17" fill="white" transform="translate(0.0532227)"/>
</clipPath>
</defs>
</svg>
