<svg width="34" height="34" viewBox="0 0 34 34" fill="none" xmlns="http://www.w3.org/2000/svg">
<circle cx="17" cy="17" r="17" fill="#217AA6"/>
<path d="M21.4992 8.00375L19.165 8C16.5427 8 14.848 9.73871 14.848 12.4298V14.4723H12.5011C12.4528 14.4723 12.4051 14.4818 12.3606 14.5002C12.316 14.5187 12.2756 14.5457 12.2415 14.5798C12.2074 14.6139 12.1804 14.6544 12.1619 14.699C12.1435 14.7435 12.134 14.7913 12.134 14.8395V17.7988C12.134 17.8961 12.1727 17.9895 12.2415 18.0583C12.3104 18.1271 12.4037 18.1658 12.5011 18.1658H14.848V25.633C14.848 25.7303 14.8866 25.8237 14.9555 25.8925C15.0243 25.9613 15.1177 26 15.215 26H18.277C18.3744 26 18.4677 25.9613 18.5366 25.8925C18.6054 25.8237 18.6441 25.7303 18.6441 25.633V18.1658H21.3881C21.4855 18.1658 21.5788 18.1271 21.6477 18.0583C21.7165 17.9895 21.7552 17.8961 21.7552 17.7988L21.7563 14.8395C21.7562 14.7421 21.7175 14.6488 21.6486 14.5799C21.5798 14.5111 21.4864 14.4724 21.3891 14.4723H18.6441V12.7409C18.6441 11.9087 18.8424 11.4862 19.9264 11.4862L21.4988 11.4857C21.5961 11.4856 21.6894 11.4469 21.7582 11.3781C21.827 11.3093 21.8657 11.2159 21.8657 11.1186V8.37077C21.8657 8.27353 21.8271 8.18026 21.7584 8.11144C21.6896 8.04263 21.5964 8.00389 21.4992 8.00375Z" fill="white"/>
</svg>
