<svg width="34" height="34" viewBox="0 0 34 34" fill="none" xmlns="http://www.w3.org/2000/svg">
<circle cx="17" cy="17" r="17" fill="#CA297E"/>
<path d="M13.4156 9H20.5847C23.0193 9 25 10.9808 25 13.4154V20.5845C25 23.0192 23.0193 24.9999 20.5847 24.9999H13.4156C10.9808 24.9999 9.0001 23.0191 9.0001 20.5845V13.4154C9 10.9808 10.9808 9 13.4156 9ZM10.4196 20.5845C10.4196 22.2364 11.7636 23.5803 13.4155 23.5803H20.5847C22.2365 23.5804 23.5804 22.2364 23.5804 20.5845V13.4154C23.5804 11.7636 22.2365 10.4196 20.5847 10.4196H13.4156C11.7637 10.4196 10.4197 11.7636 10.4197 13.4154V20.5845H10.4196Z" fill="white"/>
<path d="M17 12.8774C19.2734 12.8774 21.1228 14.7268 21.1228 17.0001C21.1228 19.2734 19.2734 21.1227 17 21.1227C14.7267 21.1227 12.8773 19.2734 12.8773 17.0001C12.8773 14.7268 14.7267 12.8774 17 12.8774ZM17 19.703C18.4905 19.703 19.7032 18.4905 19.7032 17C19.7032 15.5095 18.4906 14.2969 17 14.2969C15.5095 14.2969 14.2969 15.5095 14.2969 17C14.2969 18.4905 15.5096 19.703 17 19.703ZM12.7044 11.6737C12.9779 11.6737 13.2465 11.7844 13.4397 11.9784C13.6348 12.1739 13.7447 12.4385 13.7454 12.7147C13.7454 12.9883 13.6337 13.257 13.4397 13.451C13.2466 13.644 12.9779 13.7557 12.7044 13.7557C12.4299 13.7557 12.1621 13.644 11.9681 13.451C11.7741 13.257 11.6633 12.9882 11.6633 12.7147C11.6633 12.4402 11.7741 12.1715 11.9681 11.9784C12.1611 11.7844 12.4299 11.6737 12.7044 11.6737Z" fill="white"/>
</svg>
