<svg width="34" height="34" viewBox="0 0 34 34" fill="none" xmlns="http://www.w3.org/2000/svg">
<circle cx="17" cy="17" r="17" fill="#64AF1F"/>
<path d="M22.7451 22.7741C23.0597 22.7741 23.3323 22.6702 23.564 22.4651L19.5991 18.5C19.5039 18.5681 19.4117 18.6344 19.3246 18.6973C19.0279 18.916 18.7871 19.0866 18.6022 19.2088C18.4173 19.3313 18.1713 19.4562 17.8642 19.5837C17.5569 19.7113 17.2706 19.775 17.0051 19.775H16.9973H16.9895C16.7239 19.775 16.4376 19.7114 16.1304 19.5837C15.8231 19.4562 15.5771 19.3313 15.3924 19.2088C15.2075 19.0866 14.9668 18.916 14.6699 18.6973C14.5872 18.6367 14.4954 18.5702 14.3963 18.4989L10.4305 22.4651C10.6622 22.6702 10.935 22.7741 11.2496 22.7741H22.7451Z" fill="white"/>
<path d="M10.7889 16.0032C10.4922 15.8054 10.2291 15.5788 10 15.3237V21.3562L13.4947 17.8616C12.7956 17.3735 11.8948 16.7547 10.7889 16.0032Z" fill="white"/>
<path d="M23.2138 16.0032C22.1501 16.7232 21.246 17.343 20.5015 17.863L23.9948 21.3564V15.3237C23.7708 15.5737 23.5105 15.8001 23.2138 16.0032Z" fill="white"/>
<path d="M22.7452 11.7782H11.2497C10.8487 11.7782 10.5403 11.9136 10.3243 12.1842C10.1082 12.4549 10.0002 12.7934 10.0002 13.1994C10.0002 13.5274 10.1434 13.8827 10.4297 14.2655C10.716 14.6482 11.0206 14.9488 11.3434 15.1674C11.5204 15.2924 12.0541 15.6635 12.9445 16.2803C13.4251 16.6134 13.8431 16.9037 14.2023 17.1542C14.5085 17.3676 14.7725 17.5523 14.9905 17.7056C15.0155 17.7232 15.0549 17.7513 15.1071 17.7887C15.1634 17.8291 15.2346 17.8804 15.3225 17.9439C15.4917 18.0662 15.6323 18.1651 15.7442 18.2407C15.856 18.3163 15.9915 18.4007 16.1504 18.4945C16.3091 18.5881 16.4589 18.6585 16.5995 18.7053C16.74 18.7521 16.8702 18.7756 16.9899 18.7756H16.9977H17.0055C17.1252 18.7756 17.2553 18.7521 17.3959 18.7053C17.5365 18.6585 17.6861 18.5883 17.845 18.4945C18.0037 18.4007 18.139 18.3161 18.2512 18.2407C18.3631 18.1651 18.5037 18.0663 18.6729 17.9439C18.7606 17.8804 18.8318 17.8291 18.8881 17.7888C18.9403 17.7513 18.9797 17.7233 19.0049 17.7056C19.1747 17.5875 19.4393 17.4035 19.7952 17.1564C20.4426 16.7065 21.3961 16.0444 22.6598 15.1674C23.0398 14.902 23.3573 14.5816 23.6125 14.2069C23.8672 13.8322 23.9949 13.4391 23.9949 13.0278C23.9949 12.6841 23.8711 12.3901 23.624 12.1451C23.3766 11.9005 23.0837 11.7782 22.7452 11.7782Z" fill="white"/>
</svg>
