<svg width="34" height="34" viewBox="0 0 34 34" fill="none" xmlns="http://www.w3.org/2000/svg">
<circle cx="17" cy="17" r="17" fill="#F26F43"/>
<g clip-path="url(#clip0)">
<path d="M16.1141 20.6786C14.7187 20.5331 13.4605 20.1894 12.3833 19.3469C12.2496 19.2421 12.1116 19.141 11.9896 19.024C11.5182 18.5711 11.4707 18.0525 11.8437 17.5181C12.1629 17.0607 12.6987 16.9384 13.2556 17.201C13.3634 17.2519 13.4661 17.3154 13.5645 17.3837C15.5721 18.7631 18.3299 18.8011 20.345 17.4457C20.5447 17.2926 20.7581 17.1678 21.0054 17.1041C21.4863 16.9806 21.9348 17.1572 22.1929 17.578C22.4877 18.0586 22.4839 18.5276 22.1207 18.9007C21.5634 19.4726 20.8932 19.8864 20.1486 20.1753C19.4445 20.4482 18.6732 20.5857 17.9099 20.6769C18.0251 20.8023 18.0794 20.8639 18.1514 20.9363C19.1879 21.9777 20.2289 23.0147 21.262 24.0593C21.6139 24.4152 21.6875 24.8566 21.4937 25.2705C21.2818 25.723 20.8074 26.0207 20.3424 25.9888C20.0477 25.9684 19.8179 25.8218 19.6137 25.6161C18.8316 24.829 18.0347 24.0565 17.2684 23.2545C17.0454 23.0213 16.9381 23.0654 16.7413 23.2679C15.9544 24.078 15.1547 24.8756 14.3503 25.6687C13.9891 26.0248 13.5593 26.0889 13.1404 25.8855C12.6951 25.6696 12.4117 25.2151 12.4336 24.7583C12.4487 24.4494 12.6006 24.2133 12.8127 24.0016C13.8385 22.9774 14.8614 21.9505 15.8846 20.9246C15.9523 20.8564 16.0155 20.784 16.1141 20.6786Z" fill="white"/>
<path d="M16.9641 17.1109C14.4747 17.1024 12.4334 15.0387 12.448 12.5453C12.4623 10.0244 14.5049 7.99295 17.0188 7.99993C19.5378 8.00671 21.5597 10.0674 21.547 12.6145C21.5342 15.1028 19.4788 17.1195 16.9641 17.1109ZM19.2265 12.5513C19.2222 11.3133 18.2362 10.3278 17.0007 10.3266C15.7548 10.3253 14.76 11.3288 14.7696 12.5781C14.7788 13.8114 15.7732 14.79 17.0122 14.7855C18.2474 14.7811 19.2307 13.7892 19.2265 12.5513Z" fill="white"/>
</g>
<defs>
<clipPath id="clip0">
<rect width="18" height="18" fill="white" transform="translate(8 8)"/>
</clipPath>
</defs>
</svg>
