<svg width="28" height="28" viewBox="0 0 28 28" fill="none" xmlns="http://www.w3.org/2000/svg">
<path d="M14.0001 14C12.7167 14 11.6667 12.95 11.6667 11.6667C11.6667 10.3833 12.7167 9.33334 14.0001 9.33334C15.2834 9.33334 16.3334 10.3833 16.3334 11.6667C16.3334 12.95 15.2834 14 14.0001 14ZM21.0001 11.9C21.0001 7.66501 17.9084 4.66668 14.0001 4.66668C10.0917 4.66668 7.00008 7.66501 7.00008 11.9C7.00008 14.63 9.27508 18.2467 14.0001 22.5633C18.7251 18.2467 21.0001 14.63 21.0001 11.9ZM14.0001 2.33334C18.9001 2.33334 23.3334 6.09001 23.3334 11.9C23.3334 15.7733 20.2184 20.3583 14.0001 25.6667C7.78175 20.3583 4.66675 15.7733 4.66675 11.9C4.66675 6.09001 9.10008 2.33334 14.0001 2.33334Z" fill="#1E1E1E"/>
</svg>
