<svg width="28" height="28" viewBox="0 0 28 28" fill="none" xmlns="http://www.w3.org/2000/svg">
<path d="M14 14C12.7167 14 11.6667 12.95 11.6667 11.6667C11.6667 10.3833 12.7167 9.33334 14 9.33334C15.2833 9.33334 16.3333 10.3833 16.3333 11.6667C16.3333 12.95 15.2833 14 14 14ZM21 11.9C21 7.66501 17.9083 4.66668 14 4.66668C10.0917 4.66668 6.99999 7.66501 6.99999 11.9C6.99999 14.63 9.27499 18.2467 14 22.5633C18.725 18.2467 21 14.63 21 11.9ZM14 2.33334C18.9 2.33334 23.3333 6.09001 23.3333 11.9C23.3333 15.7733 20.2183 20.3583 14 25.6667C7.78166 20.3583 4.66666 15.7733 4.66666 11.9C4.66666 6.09001 9.09999 2.33334 14 2.33334Z" fill="#239FB3"/>
</svg>
