<svg width="10" height="13" viewBox="0 0 10 13" fill="none" xmlns="http://www.w3.org/2000/svg">
<path d="M5 6.25537C4.3125 6.25537 3.75 5.69287 3.75 5.00537C3.75 4.31787 4.3125 3.75537 5 3.75537C5.6875 3.75537 6.25 4.31787 6.25 5.00537C6.25 5.69287 5.6875 6.25537 5 6.25537ZM8.75 5.13037C8.75 2.86162 7.09375 1.25537 5 1.25537C2.90625 1.25537 1.25 2.86162 1.25 5.13037C1.25 6.59287 2.46875 8.53037 5 10.8429C7.53125 8.53037 8.75 6.59287 8.75 5.13037ZM5 0.00537109C7.625 0.00537109 10 2.01787 10 5.13037C10 7.20537 8.33125 9.66162 5 12.5054C1.66875 9.66162 0 7.20537 0 5.13037C0 2.01787 2.375 0.00537109 5 0.00537109Z" fill="#1E1E1E"/>
</svg>
