<svg width="173" height="29" viewBox="0 0 173 29" fill="none" xmlns="http://www.w3.org/2000/svg">
<path fill-rule="evenodd" clip-rule="evenodd" d="M161.104 27.795H171.435C172.251 27.795 172.912 27.13 172.912 26.3096V22.5984C172.912 21.778 172.251 21.113 171.435 21.113H161.104C160.288 21.113 159.627 21.778 159.627 22.5984V26.3096C159.627 27.13 160.288 27.795 161.104 27.795Z" fill="#812990"/>
<path fill-rule="evenodd" clip-rule="evenodd" d="M127.89 27.795H151.506C152.322 27.795 152.983 27.13 152.983 26.3096V22.5984C152.983 21.778 152.322 21.113 151.506 21.113H127.89C127.074 21.113 126.413 21.778 126.413 22.5984V26.3096C126.413 27.13 127.074 27.795 127.89 27.795Z" fill="#0066B3"/>
<path fill-rule="evenodd" clip-rule="evenodd" d="M107.961 27.795H118.293C119.108 27.795 119.77 27.13 119.77 26.3096V22.5984C119.77 21.778 119.108 21.113 118.293 21.113H107.961C107.146 21.113 106.484 21.778 106.484 22.5984V26.3096C106.484 27.13 107.146 27.795 107.961 27.795Z" fill="#33A3DC"/>
<path fill-rule="evenodd" clip-rule="evenodd" d="M74.7476 27.7951H98.3639C98.7576 27.7982 99.1362 27.643 99.4157 27.3641C99.6952 27.0852 99.8524 26.7056 99.8524 26.3096V22.5984C99.8524 21.778 99.1911 21.113 98.3755 21.113H74.7476C73.932 21.113 73.2708 21.778 73.2708 22.5984V26.3096C73.2708 27.13 73.932 27.7951 74.7476 27.7951Z" fill="#45B97C"/>
<path fill-rule="evenodd" clip-rule="evenodd" d="M54.819 27.795H65.1503C65.9659 27.795 66.6272 27.13 66.6272 26.3096V22.5984C66.6272 21.778 65.9659 21.113 65.1503 21.113H54.819C54.4274 21.113 54.0517 21.2695 53.7747 21.548C53.4978 21.8266 53.3422 22.2044 53.3422 22.5984V26.3096C53.3422 27.13 54.0034 27.795 54.819 27.795Z" fill="#FFCC31"/>
<path fill-rule="evenodd" clip-rule="evenodd" d="M1.67659 27.795H12.0078C12.8235 27.795 13.4847 27.13 13.4847 26.3096V22.5984C13.4847 21.778 12.8235 21.113 12.0078 21.113H1.67659C0.860931 21.113 0.199707 21.778 0.199707 22.5984V26.3096C0.199707 27.13 0.860931 27.795 1.67659 27.795Z" fill="#ED1846"/>
<path fill-rule="evenodd" clip-rule="evenodd" d="M21.596 27.795H45.2123C46.0279 27.795 46.6891 27.13 46.6891 26.3096V22.5984C46.6891 21.778 46.0279 21.113 45.2123 21.113H21.596C20.7804 21.113 20.1191 21.778 20.1191 22.5984V26.3096C20.1191 27.13 20.7804 27.795 21.596 27.795Z" fill="#FBB306"/>
<path d="M98.141 1.06211H92.7164C92.6095 1.06086 92.5065 1.10256 92.4302 1.17796C92.3539 1.25337 92.3107 1.35625 92.3101 1.46382V12.9291C92.3131 13.3287 92.4739 13.7106 92.7569 13.9909C93.04 14.2713 93.4222 14.427 93.8195 14.424H95.6052C95.7121 14.4251 95.8152 14.3835 95.8914 14.308C95.9677 14.2326 96.0109 14.1298 96.0116 14.0222V10.722H98.141C101.392 10.722 102.959 8.45419 102.959 5.87105C102.959 3.33462 101.102 1.05743 98.141 1.05743V1.06211ZM97.3979 7.62506H96.0046V4.1217H97.4513C98.5473 4.1217 99.1674 4.78968 99.1674 5.85236C99.1674 6.91504 98.5473 7.62039 97.3909 7.62039" fill="#ED1846"/>
<path d="M132.985 11.3386H132.736V1.45915C132.736 1.35158 132.692 1.2487 132.616 1.17329C132.54 1.09789 132.437 1.05619 132.33 1.05739H124.435C123.603 1.05096 122.924 1.72297 122.916 2.55921V4.51408C122.916 6.76557 122.886 9.27864 121.685 11.3456H121.481C120.702 11.3378 120.064 11.9641 120.053 12.747V16.2153C120.053 16.3229 120.097 16.4257 120.173 16.5011C120.249 16.5766 120.352 16.6182 120.459 16.617H122.955C123.178 16.6183 123.359 16.4388 123.362 16.2153V14.4029H131.104V16.2153C131.104 16.3229 131.148 16.4257 131.224 16.5011C131.3 16.5766 131.403 16.6182 131.51 16.617H134.004C134.111 16.6182 134.214 16.5766 134.29 16.5011C134.367 16.4257 134.41 16.3229 134.411 16.2153V12.7563C134.399 11.9744 133.762 11.3485 132.985 11.355V11.3386ZM129.056 11.376H125.408C126.274 9.48184 126.432 6.873 126.432 4.8107V4.13572H128.601C128.912 4.13572 129.065 4.27819 129.065 4.58648L129.056 11.376Z" fill="#ED1846"/>
<path d="M147.895 1.0621H145.708C144.693 1.0621 144.28 1.34938 143.969 2.24857L142.236 6.79826L140.237 2.24857C139.844 1.3704 139.492 1.0621 138.5 1.0621H136.159C136.017 1.05976 135.885 1.13339 135.811 1.2555C135.738 1.3776 135.734 1.52983 135.802 1.65534L140.49 10.3787C140.314 10.914 139.818 11.2762 139.257 11.2779C138.887 11.2669 138.528 11.1476 138.224 10.9346C138.132 10.8761 138.021 10.8573 137.915 10.8823C137.809 10.9074 137.718 10.9742 137.662 11.0677L136.456 13.0716C136.349 13.2383 136.385 13.4597 136.54 13.5831C137.327 14.181 138.6 14.5897 139.838 14.5897C140.934 14.5897 141.802 14.3048 142.422 13.7116C143.082 13.0841 143.603 12.3242 143.952 11.4811L148.269 1.61563C148.322 1.49059 148.308 1.34728 148.233 1.23467C148.157 1.12205 148.03 1.05538 147.895 1.05739" fill="#ED1846"/>
<path d="M158.589 1.06213H151.604C150.772 1.05565 150.093 1.72766 150.085 2.5639V14.0222C150.088 14.2457 150.269 14.4252 150.491 14.4239H153.383C153.605 14.4252 153.786 14.2457 153.789 14.0222V4.1264H158.589C158.696 4.12764 158.799 4.08594 158.875 4.01054C158.951 3.93513 158.995 3.83225 158.995 3.72468V1.45917C158.995 1.3516 158.951 1.24872 158.875 1.17331C158.799 1.09791 158.696 1.05621 158.589 1.05743" fill="#ED1846"/>
<path d="M172.505 1.0621H170.053C169.52 1.06034 169.025 1.33947 168.748 1.79781L164.596 8.30237V2.5522C164.593 2.15266 164.432 1.77071 164.149 1.49039C163.866 1.21006 163.484 1.05432 163.087 1.05739H161.301C161.079 1.05613 160.897 1.23562 160.895 1.45915V14.0175C160.897 14.241 161.079 14.4205 161.301 14.4193H163.772C164.306 14.4204 164.802 14.1404 165.079 13.6812L169.21 7.14159V12.9268C169.218 13.7579 169.893 14.4257 170.72 14.4193H172.505C172.612 14.4205 172.715 14.3788 172.792 14.3034C172.868 14.228 172.911 14.1251 172.912 14.0175V1.45915C172.911 1.35158 172.868 1.2487 172.792 1.17329C172.715 1.09789 172.612 1.05619 172.505 1.05739" fill="#ED1846"/>
<path d="M24.1805 1.06213H16.0971C15.2657 1.05565 14.5861 1.72766 14.5785 2.5639V5.86873C14.5785 9.72943 14.3277 10.8412 12.5164 11.2966C12.3295 11.3323 12.1918 11.4931 12.1843 11.6843V14.1857C12.1855 14.2974 12.2316 14.4039 12.3121 14.4809C12.3926 14.5579 12.5006 14.5988 12.6116 14.5944C16.6103 14.3982 18.0733 12.6279 18.0733 5.91077V4.13107H20.4349C20.5564 4.12729 20.6742 4.17303 20.7617 4.25791C20.8491 4.34278 20.8988 4.4596 20.8993 4.58183V14.0222C20.9 14.1298 20.9432 14.2327 21.0195 14.3081C21.0957 14.3835 21.1988 14.4252 21.3057 14.4239H24.1945C24.3014 14.4252 24.4044 14.3835 24.4807 14.3081C24.557 14.2327 24.6002 14.1298 24.6008 14.0222V1.45917C24.6002 1.3516 24.557 1.24872 24.4807 1.17331C24.4044 1.09791 24.3014 1.05621 24.1945 1.05743" fill="#ED1846"/>
<path d="M43.1781 1.06213H40.2893C40.1824 1.06088 40.0793 1.10258 40.0031 1.17799C39.9268 1.25339 39.8835 1.35628 39.8829 1.46385V14.0199C39.8835 14.1274 39.9268 14.2303 40.0031 14.3057C40.0793 14.3811 40.1824 14.4228 40.2893 14.4216H43.1781C43.285 14.4228 43.388 14.3811 43.4643 14.3057C43.5406 14.2303 43.5838 14.1274 43.5844 14.0199V1.45917C43.5838 1.3516 43.5406 1.24872 43.4643 1.17331C43.388 1.09791 43.285 1.05621 43.1781 1.05743" fill="#ED1846"/>
<path d="M52.1532 5.98548H50.479V4.11703H55.943C56.0499 4.11827 56.153 4.07657 56.2292 4.00117C56.3055 3.92576 56.3487 3.82288 56.3494 3.71531V1.44981C56.3487 1.34224 56.3055 1.23935 56.2292 1.16395C56.153 1.08854 56.0499 1.04684 55.943 1.04806H47.1838C47.0767 1.04684 46.9734 1.08847 46.8968 1.16381C46.8201 1.23914 46.7764 1.34202 46.7751 1.44981V12.9151C46.7788 13.3147 46.9402 13.6964 47.2237 13.9763C47.5072 14.2561 47.8896 14.4113 48.2869 14.4076H52.1114C56.08 14.4076 57.7357 12.49 57.7357 10.0774C57.7357 7.37748 55.7038 5.97614 52.1625 5.97614L52.1532 5.98548ZM52.4714 11.4437H50.9434C50.6322 11.4437 50.479 11.2989 50.479 10.9929V8.95633H52.4807C53.4095 8.95633 53.9297 9.46081 53.9297 10.1825C53.9297 10.9042 53.3909 11.4437 52.4598 11.4437" fill="#ED1846"/>
<path d="M32.9141 5.42028H31.421V1.44981C31.4204 1.34224 31.3771 1.23935 31.3009 1.16395C31.2246 1.08854 31.1216 1.04684 31.0146 1.04806H28.1259C28.0189 1.04684 27.9159 1.08854 27.8396 1.16395C27.7633 1.23935 27.7201 1.34224 27.7195 1.44981V12.9151C27.7271 13.7462 28.4026 14.414 29.2289 14.4076H32.8723C36.8409 14.4076 38.4966 12.3593 38.4966 9.78546C38.4966 6.90336 36.4647 5.41093 32.9234 5.41093L32.9141 5.42028ZM33.2323 11.4437H31.8854C31.5766 11.4437 31.421 11.2685 31.421 10.8925V8.41214H33.2439C34.1727 8.41214 34.6929 9.02873 34.6929 9.91158C34.6929 10.7944 34.1542 11.4531 33.223 11.4531" fill="#ED1846"/>
<path d="M12.1449 1.06206H9.95511C8.94265 1.06206 8.52931 1.34939 8.21814 2.24859L6.48582 6.79828L4.48645 2.24859C4.09401 1.37041 3.74104 1.06206 2.74948 1.06206H0.408759C0.266805 1.05978 0.134286 1.13341 0.0606792 1.25551C-0.0129271 1.37761 -0.0165556 1.52984 0.0511485 1.65535L4.73956 10.3834C4.5637 10.9187 4.06707 11.2809 3.5065 11.2826C3.14003 11.2722 2.78437 11.1554 2.48244 10.9463C2.39221 10.8844 2.28083 10.8621 2.17394 10.8846C2.06706 10.9071 1.97387 10.9723 1.91583 11.0654L0.696706 13.0716C0.596183 13.2451 0.636631 13.4663 0.791914 13.5925C1.58144 14.1857 2.84701 14.5897 4.08007 14.5897C5.17613 14.5897 6.04461 14.3048 6.66462 13.7116C7.3245 13.0842 7.84587 12.3242 8.19492 11.4811L12.5118 1.61565C12.5619 1.49225 12.5478 1.35189 12.4743 1.24099C12.4008 1.13009 12.2774 1.06308 12.1449 1.06206Z" fill="#ED1846"/>
<path d="M85.2229 1.06212H82.3481C82.1198 1.06212 81.9348 1.24825 81.9348 1.47785V2.28596C80.9943 1.41245 79.7009 0.884613 78.0034 0.884613C74.6873 0.884613 72.0006 3.95355 72.0006 7.73951C72.0006 11.5255 74.6873 14.5944 78.0034 14.5944C79.7357 14.5944 81.057 14.0362 82.0091 13.109C82.2725 13.8749 82.98 14.3967 83.7855 14.4192H85.2229C85.4499 14.4192 85.6339 14.2342 85.6339 14.0059V1.47318C85.6314 1.24631 85.4485 1.06338 85.2229 1.06212ZM78.8765 11.3386C76.9143 11.3386 75.7137 9.72241 75.7137 7.72784C75.7137 5.73326 77.0048 4.11471 78.8765 4.11471C80.8666 4.11471 82.0416 5.73326 82.0416 7.72784C82.0416 9.72241 80.9595 11.3386 78.8788 11.3386" fill="#ED1846"/>
<path d="M68.9307 8.86293C68.6342 8.24881 68.0922 7.79031 67.4399 7.60172C68.0917 7.41074 68.6331 6.95189 68.9307 6.33817L71.29 1.63901C71.3526 1.51328 71.3453 1.36378 71.2707 1.24484C71.1962 1.1259 71.0652 1.05482 70.9254 1.05738H67.8068C67.6489 1.058 67.5049 1.14849 67.4352 1.29101L65.3453 5.62115C65.1131 6.07192 64.7253 6.07192 64.2075 6.07192H63.7198V2.55221C63.7167 2.15268 63.556 1.77073 63.2729 1.49041C62.9899 1.21008 62.6077 1.05434 62.2104 1.05738H60.4247C60.2024 1.05615 60.0209 1.23564 60.0183 1.45917V14.0175C60.0209 14.2411 60.2024 14.4205 60.4247 14.4193H63.3134C63.4204 14.4205 63.5234 14.3788 63.5997 14.3034C63.676 14.228 63.7192 14.1251 63.7198 14.0175V9.12918H64.2168C64.7346 9.12918 65.127 9.12918 65.3546 9.57995L67.5746 14.1857C67.643 14.3294 67.7877 14.4204 67.9461 14.4193H71.0624C71.2016 14.4215 71.3318 14.3507 71.4062 14.2325C71.4806 14.1142 71.4885 13.9656 71.427 13.84L68.9307 8.86293Z" fill="#ED1846"/>
<path d="M117.652 1.06212H114.774C114.547 1.0634 114.363 1.24915 114.363 1.47785V2.28596C113.421 1.41245 112.13 0.884613 110.43 0.884613C107.116 0.884613 104.427 3.95355 104.427 7.73951C104.427 11.5255 107.116 14.5944 110.43 14.5944C112.164 14.5944 113.486 14.0362 114.438 13.109C114.701 13.8753 115.408 14.3974 116.214 14.4192H117.652C117.879 14.4192 118.064 14.2345 118.065 14.0059V1.47318C118.065 1.24357 117.88 1.05745 117.652 1.05745V1.06212ZM111.308 11.334C109.345 11.334 108.142 9.71774 108.142 7.72316C108.142 5.72859 109.436 4.11004 111.308 4.11004C113.298 4.11004 114.473 5.72859 114.473 7.72316C114.473 9.71774 113.386 11.3386 111.308 11.3386" fill="#ED1846"/>
</svg>
