<svg width="34" height="34" viewBox="0 0 34 34" fill="none" xmlns="http://www.w3.org/2000/svg">
<circle cx="17" cy="17" r="17" fill="#1AA0E2"/>
<path fill-rule="evenodd" clip-rule="evenodd" d="M23.9918 9.66963L21.7061 23.3837C21.6763 23.5563 21.5811 23.6902 21.4204 23.7854C21.337 23.8331 21.2448 23.8569 21.1436 23.8569C21.0781 23.8569 21.0067 23.842 20.9293 23.8122L16.8848 22.1605L14.7241 24.7943C14.6169 24.9312 14.4711 24.9997 14.2866 24.9997C14.2092 24.9997 14.1437 24.9878 14.0902 24.964C13.9771 24.9223 13.8863 24.8524 13.8178 24.7542C13.7494 24.656 13.7152 24.5473 13.7152 24.4283V21.3123L21.4293 11.8571L11.8848 20.1159L8.35813 18.6695C8.13789 18.5861 8.01885 18.4224 8.00099 18.1784C7.98909 17.9403 8.08432 17.7647 8.2867 17.6516L23.1436 9.08036C23.2328 9.02678 23.3281 9 23.4293 9C23.5483 9 23.6555 9.03274 23.7507 9.09821C23.9471 9.24107 24.0275 9.43154 23.9918 9.66963Z" fill="#FCFCFC"/>
</svg>
