<svg width="34" height="34" viewBox="0 0 34 34" fill="none" xmlns="http://www.w3.org/2000/svg">
<circle cx="17" cy="17" r="17" fill="#665EAA"/>
<path d="M26.2509 11.8149L26.2452 11.792C25.7808 9.91464 23.6873 7.90022 21.7646 7.48113L21.743 7.47665C18.6332 6.88343 15.4801 6.88343 12.371 7.47665L12.3487 7.48113C10.4267 7.90022 8.33306 9.91477 7.86809 11.792L7.86293 11.8149C7.28885 14.4366 7.28885 17.0955 7.86293 19.7172L7.86809 19.7401C8.31331 21.5373 10.2509 23.4592 12.1018 23.9877V26.0834C12.1018 26.8419 13.0261 27.2144 13.5517 26.667L15.675 24.46C16.1356 24.4857 16.5963 24.5001 17.0569 24.5001C18.6223 24.5001 20.1884 24.352 21.7429 24.0555L21.7646 24.051C23.6872 23.6319 25.7808 21.6174 26.2451 19.7402L26.2508 19.7172C26.8249 17.0955 26.8249 14.4368 26.2509 11.8149ZM24.5706 19.337C24.2605 20.5618 22.6709 22.0845 21.4079 22.3658C19.7545 22.6803 18.0879 22.8146 16.4229 22.7685C16.3898 22.7676 16.358 22.7805 16.3349 22.8042C16.0986 23.0467 14.7847 24.3957 14.7847 24.3957L13.1358 26.0881C13.0152 26.2138 12.8034 26.1282 12.8034 25.9547V22.4831C12.8034 22.4257 12.7625 22.3771 12.7061 22.3659C12.7058 22.3658 12.7055 22.3658 12.7052 22.3657C11.4421 22.0844 9.85311 20.5618 9.54252 19.337C9.02581 16.9672 9.02581 14.5649 9.54252 12.1951C9.85311 10.9703 11.4421 9.44769 12.7052 9.16636C15.5929 8.61713 18.5209 8.61713 21.408 9.16636C22.6716 9.44769 24.2606 10.9703 24.5706 12.1951C25.0879 14.5649 25.0879 16.9673 24.5706 19.337Z" fill="white"/>
<path d="M19.8043 20.9395C19.6102 20.8805 19.4252 20.8409 19.2532 20.7697C17.4724 20.0309 15.8335 19.0777 14.5354 17.6167C13.7972 16.7858 13.2194 15.8478 12.731 14.8551C12.4993 14.3844 12.3041 13.8952 12.1052 13.4091C11.9238 12.9659 12.191 12.5081 12.4723 12.1741C12.7363 11.8606 13.0761 11.6208 13.4441 11.444C13.7313 11.306 14.0145 11.3856 14.2243 11.629C14.6776 12.1553 15.0942 12.7084 15.4313 13.3185C15.6388 13.6937 15.5819 14.1524 15.206 14.4077C15.1146 14.4698 15.0313 14.5427 14.9463 14.6127C14.8716 14.6742 14.8014 14.7362 14.7502 14.8194C14.6567 14.9715 14.6522 15.1511 14.7124 15.3166C15.1759 16.5902 15.9571 17.5807 17.2392 18.1143C17.4443 18.1996 17.6503 18.2989 17.8867 18.2715C18.2825 18.2252 18.4107 17.791 18.6881 17.5642C18.9592 17.3425 19.3057 17.3396 19.5977 17.5244C19.8898 17.7093 20.1729 17.9077 20.4544 18.1083C20.7307 18.3052 21.0057 18.4977 21.2605 18.7222C21.5056 18.938 21.59 19.2211 21.4519 19.5139C21.1994 20.0503 20.8318 20.4964 20.3016 20.7813C20.1519 20.8615 19.9731 20.8875 19.8043 20.9395C19.6102 20.8805 19.9731 20.8875 19.8043 20.9395Z" fill="white"/>
<path d="M17.0616 10.8307C19.3908 10.896 21.304 12.4418 21.714 14.7446C21.7839 15.137 21.8087 15.5381 21.8398 15.9364C21.8529 16.1039 21.758 16.263 21.5773 16.2652C21.3906 16.2675 21.3066 16.1112 21.2944 15.9438C21.2704 15.6124 21.2538 15.2794 21.2081 14.9508C20.967 13.2156 19.5834 11.7801 17.8563 11.4721C17.5964 11.4257 17.3305 11.4136 17.0672 11.3859C16.9008 11.3685 16.6829 11.3584 16.646 11.1515C16.6151 10.9781 16.7615 10.84 16.9266 10.8311C16.9714 10.8284 17.0165 10.8305 17.0616 10.8307C19.391 10.896 17.0165 10.8305 17.0616 10.8307Z" fill="white"/>
<path d="M20.6015 15.4195C20.5976 15.4487 20.5956 15.517 20.5785 15.5814C20.5167 15.8152 20.1621 15.8444 20.0806 15.6085C20.0563 15.5385 20.0527 15.4588 20.0526 15.3835C20.0518 14.8902 19.9446 14.3973 19.6958 13.968C19.44 13.5268 19.0492 13.1561 18.5911 12.9316C18.3139 12.7959 18.0143 12.7115 17.7106 12.6614C17.5779 12.6394 17.4437 12.6261 17.3103 12.6075C17.1487 12.5851 17.0623 12.4821 17.0701 12.3228C17.0772 12.1736 17.1863 12.0661 17.3489 12.0754C17.8834 12.1057 18.3998 12.2214 18.8751 12.473C19.8414 12.9848 20.3935 13.7926 20.5547 14.8713C20.562 14.9202 20.5736 14.9685 20.5774 15.0176C20.5865 15.1385 20.5922 15.2597 20.6015 15.4195C20.5976 15.4485 20.5922 15.2597 20.6015 15.4195Z" fill="white"/>
<path d="M19.1527 15.3631C18.9579 15.3666 18.8536 15.2587 18.8334 15.0801C18.8195 14.9556 18.8084 14.8294 18.7786 14.7081C18.7201 14.4693 18.5932 14.2482 18.3924 14.1019C18.2976 14.0328 18.1902 13.9825 18.0777 13.9499C17.9348 13.9086 17.7862 13.92 17.6437 13.8851C17.4889 13.8471 17.4032 13.7217 17.4276 13.5765C17.4497 13.4442 17.5783 13.341 17.7228 13.3515C18.6259 13.4167 19.2713 13.8836 19.3634 14.9467C19.37 15.0218 19.3776 15.101 19.361 15.1729C19.3323 15.2956 19.2414 15.3571 19.1527 15.3631C18.9578 15.3666 19.2414 15.3571 19.1527 15.3631Z" fill="white"/>
</svg>
