<svg width="34" height="34" viewBox="0 0 34 34" fill="none" xmlns="http://www.w3.org/2000/svg">
<circle cx="17" cy="17" r="17" fill="#4277A5"/>
<g clip-path="url(#clip0)">
<path d="M25.9046 21.1397C25.8828 21.0927 25.8625 21.0538 25.8436 21.0225C25.5313 20.4601 24.9345 19.7697 24.0536 18.9512L24.0349 18.9325L24.0256 18.9233L24.0162 18.9138H24.0068C23.6069 18.5327 23.3538 18.2764 23.2477 18.1452C23.0537 17.8953 23.0103 17.6423 23.1163 17.386C23.1912 17.1923 23.4726 16.7833 23.9598 16.1584C24.216 15.8273 24.419 15.5618 24.5689 15.3619C25.6499 13.9248 26.1185 13.0064 25.9747 12.6065L25.9189 12.5131C25.8814 12.4568 25.7845 12.4054 25.6285 12.3584C25.4721 12.3116 25.2723 12.3038 25.0285 12.335L22.3295 12.3537C22.2858 12.3382 22.2234 12.3396 22.142 12.3584L22.0201 12.3866L21.9732 12.4101L21.9359 12.4383C21.9046 12.4569 21.8703 12.4897 21.8327 12.5366C21.7954 12.5833 21.7642 12.6381 21.7392 12.7006C21.4454 13.4566 21.1113 14.1595 20.7363 14.8092C20.5051 15.1966 20.2928 15.5324 20.0989 15.8167C19.9053 16.1009 19.7428 16.3103 19.6117 16.4445C19.4804 16.5789 19.3619 16.6865 19.2555 16.7678C19.1493 16.8492 19.0682 16.8835 19.012 16.871C18.9557 16.8584 18.9027 16.8459 18.8525 16.8334C18.7651 16.7772 18.6948 16.7007 18.6418 16.6038C18.5885 16.507 18.5527 16.3851 18.5339 16.2383C18.5153 16.0914 18.5043 15.965 18.5011 15.8587C18.4982 15.7526 18.4995 15.6025 18.5059 15.4088C18.5124 15.2151 18.5153 15.084 18.5153 15.0152C18.5153 14.7778 18.5199 14.5201 18.5292 14.242C18.5387 13.964 18.5463 13.7437 18.5527 13.5814C18.5591 13.419 18.562 13.2471 18.562 13.0659C18.562 12.8847 18.551 12.7426 18.5292 12.6395C18.5074 12.5362 18.4745 12.4357 18.4311 12.3395C18.3872 12.2427 18.3231 12.1678 18.2389 12.1146C18.1546 12.0615 18.0498 12.0194 17.925 11.988C17.5938 11.9131 17.1721 11.8726 16.6597 11.8663C15.4976 11.8538 14.7509 11.9288 14.4198 12.0913C14.2886 12.1599 14.1699 12.2537 14.0637 12.3723C13.9512 12.5098 13.9355 12.5849 14.0167 12.5972C14.3917 12.6534 14.6571 12.7877 14.8133 13.0001L14.8696 13.1127C14.9134 13.1939 14.9571 13.3377 15.0009 13.5438C15.0446 13.75 15.0728 13.978 15.0852 14.2278C15.1164 14.684 15.1164 15.0745 15.0852 15.3993C15.0539 15.7243 15.0243 15.9773 14.9961 16.1585C14.968 16.3397 14.9258 16.4865 14.8696 16.5989C14.8133 16.7114 14.7759 16.7801 14.7571 16.8051C14.7383 16.83 14.7227 16.8457 14.7103 16.8519C14.6296 16.883 14.5438 16.8989 14.4572 16.8989C14.3697 16.8989 14.2635 16.8551 14.1386 16.7676C14.0137 16.6801 13.8841 16.5598 13.7497 16.4068C13.6154 16.2536 13.4638 16.0396 13.2951 15.7648C13.1265 15.4899 12.9515 15.165 12.7703 14.7901L12.6204 14.5183C12.5267 14.3434 12.3987 14.0887 12.2362 13.7545C12.0736 13.4202 11.93 13.0968 11.8051 12.7844C11.7551 12.6532 11.6801 12.5533 11.5802 12.4846L11.5333 12.4564C11.5021 12.4314 11.452 12.405 11.3834 12.3767C11.314 12.3484 11.2417 12.328 11.1678 12.3159L8.59991 12.3345C8.33751 12.3345 8.15947 12.394 8.06572 12.5127L8.0282 12.5689C8.00945 12.6001 8 12.6501 8 12.7189C8 12.7876 8.01874 12.872 8.05626 12.9719C8.43113 13.8529 8.83878 14.7026 9.27923 15.521C9.71968 16.3395 10.1024 16.9988 10.4272 17.4983C10.7521 17.9982 11.0832 18.47 11.4207 18.9135C11.7581 19.3571 11.9814 19.6414 12.0907 19.7663C12.2001 19.8914 12.286 19.985 12.3485 20.0475L12.5828 20.2724C12.7328 20.4223 12.953 20.602 13.2435 20.8112C13.5341 21.0206 13.8558 21.2267 14.2088 21.43C14.5619 21.6329 14.9726 21.7984 15.4413 21.9265C15.9099 22.0547 16.3659 22.1061 16.8096 22.0813H17.8874C18.1059 22.0624 18.2716 21.9937 18.3841 21.875L18.4214 21.8281C18.4465 21.7908 18.4699 21.7328 18.4916 21.6549C18.5135 21.5768 18.5244 21.4908 18.5244 21.3972C18.518 21.1286 18.5385 20.8865 18.5852 20.671C18.6319 20.4555 18.6852 20.293 18.7447 20.1836C18.8042 20.0743 18.8714 19.9821 18.9461 19.9073C19.0211 19.8324 19.0744 19.787 19.1057 19.7713C19.1369 19.7556 19.1617 19.745 19.1805 19.7386C19.3304 19.6886 19.5069 19.737 19.7101 19.8839C19.9132 20.0308 20.1037 20.2121 20.2819 20.4275C20.4599 20.6432 20.6739 20.8851 20.9238 21.1537C21.1738 21.4225 21.3924 21.6222 21.5798 21.7536L21.7671 21.8661C21.8923 21.9411 22.0547 22.0098 22.2547 22.0723C22.4543 22.1347 22.6292 22.1504 22.7794 22.1191L25.1785 22.0817C25.4158 22.0817 25.6004 22.0424 25.7314 21.9645C25.8626 21.8864 25.9406 21.8003 25.9657 21.7068C25.9908 21.6131 25.9922 21.5068 25.9705 21.388C25.9483 21.2694 25.9264 21.1865 25.9046 21.1397Z" fill="white"/>
</g>
<defs>
<clipPath id="clip0">
<rect width="18" height="18" fill="white" transform="translate(8 8)"/>
</clipPath>
</defs>
</svg>
