<svg width="34" height="34" viewBox="0 0 34 34" fill="none" xmlns="http://www.w3.org/2000/svg">
<circle cx="17" cy="17" r="17" fill="#8AD03D"/>
<path d="M26 16.7682C26 21.6108 22.0442 25.5364 17.1636 25.5364C15.6142 25.5364 14.1586 25.1404 12.8922 24.4454L8 26L9.595 21.2956C8.7904 19.9744 8.327 18.4248 8.327 16.7682C8.327 11.9256 12.2832 8 17.1636 8C22.0446 8 26 11.9256 26 16.7682ZM17.1636 9.3964C13.0668 9.3964 9.7344 12.7034 9.7344 16.7682C9.7344 18.3812 10.2602 19.875 11.1496 21.0902L10.2214 23.828L13.0764 22.9206C14.2494 23.6908 15.6546 24.14 17.1638 24.14C21.26 24.14 24.593 20.8334 24.593 16.7686C24.593 12.7038 21.2602 9.3964 17.1636 9.3964ZM21.6258 18.7876C21.5712 18.6982 21.427 18.6442 21.2106 18.5368C20.9938 18.4294 19.9286 17.9092 19.7306 17.8378C19.532 17.7662 19.3872 17.7302 19.243 17.9452C19.0988 18.1604 18.6836 18.6442 18.557 18.7876C18.4306 18.9314 18.3044 18.9494 18.0876 18.8418C17.8712 18.7344 17.1734 18.5072 16.346 17.7752C15.7022 17.2056 15.2674 16.5024 15.141 16.287C15.0148 16.072 15.1278 15.9558 15.236 15.8488C15.3336 15.7524 15.4528 15.5978 15.561 15.4724C15.6696 15.3468 15.7056 15.2574 15.7774 15.1138C15.85 14.9704 15.8138 14.845 15.7594 14.7372C15.7054 14.6298 15.2718 13.5722 15.0914 13.1418C14.911 12.7118 14.7308 12.7834 14.6042 12.7834C14.478 12.7834 14.3334 12.7654 14.189 12.7654C14.0446 12.7654 13.8098 12.8192 13.6112 13.0342C13.4128 13.2494 12.8534 13.7694 12.8534 14.8268C12.8534 15.8844 13.6292 16.9062 13.7378 17.0494C13.846 17.1926 15.2358 19.4334 17.4378 20.294C19.64 21.1542 19.64 20.8672 20.0372 20.8312C20.434 20.7954 21.3184 20.3114 21.4996 19.8098C21.6796 19.3074 21.6796 18.8772 21.6258 18.7876Z" fill="white"/>
</svg>
