<svg width="34" height="34" viewBox="0 0 34 34" fill="none" xmlns="http://www.w3.org/2000/svg">
<circle cx="17" cy="17" r="17" fill="#E1E1E1"/>
<path fill-rule="evenodd" clip-rule="evenodd" d="M18.6317 18.6335C17.2263 20.0735 17.1278 21.878 17.0085 25.824C20.681 25.824 23.2257 25.8119 24.5321 24.5357C25.8074 23.2293 25.82 20.5644 25.82 17.0108C21.8744 17.1296 20.0704 17.2286 18.6317 18.6339V18.6335ZM8 17.0112C8 20.5653 8.01215 23.2302 9.2879 24.5361C10.5943 25.8123 13.139 25.8245 16.8119 25.8245C16.6927 21.8784 16.5937 20.0739 15.1888 18.6344C13.7497 17.2286 11.9456 17.1296 8 17.0108V17.0112ZM16.8119 8C13.139 8 10.5943 8.0126 9.2879 9.28835C8.0126 10.5947 8 13.2596 8 16.8137C11.9456 16.6944 13.7497 16.5959 15.1888 15.1901C16.5937 13.751 16.6927 11.9465 16.8119 8ZM18.6317 15.1901C17.2263 13.751 17.1278 11.9465 17.0085 8C20.681 8 23.2257 8.0126 24.5321 9.28835C25.8074 10.5947 25.82 13.2596 25.82 16.8137C21.8744 16.6944 20.0704 16.5959 18.6317 15.1901Z" fill="#2C3036"/>
<path fill-rule="evenodd" clip-rule="evenodd" d="M18.6317 18.6335C17.2263 20.0735 17.1278 21.878 17.0085 25.824C20.681 25.824 23.2257 25.8119 24.5321 24.5357C25.8074 23.2293 25.82 20.5644 25.82 17.0108C21.8744 17.1296 20.0704 17.2286 18.6317 18.6339V18.6335ZM8 17.0112C8 20.5653 8.01215 23.2302 9.2879 24.5361C10.5943 25.8123 13.139 25.8245 16.8119 25.8245C16.6927 21.8784 16.5937 20.0739 15.1888 18.6344C13.7497 17.2286 11.9456 17.1296 8 17.0108V17.0112ZM16.8119 8C13.139 8 10.5943 8.0126 9.2879 9.28835C8.0126 10.5947 8 13.2596 8 16.8137C11.9456 16.6944 13.7497 16.5959 15.1888 15.1901C16.5937 13.751 16.6927 11.9465 16.8119 8ZM18.6317 15.1901C17.2263 13.751 17.1278 11.9465 17.0085 8C20.681 8 23.2257 8.0126 24.5321 9.28835C25.8074 10.5947 25.82 13.2596 25.82 16.8137C21.8744 16.6944 20.0704 16.5959 18.6317 15.1901Z" fill="url(#paint0_linear)"/>
<defs>
<linearGradient id="paint0_linear" x1="25.82" y1="25.8243" x2="25.82" y2="8" gradientUnits="userSpaceOnUse">
<stop stop-color="white" stop-opacity="0.01"/>
<stop offset="0.475" stop-color="white" stop-opacity="0.01"/>
<stop offset="0.76" stop-color="white" stop-opacity="0.043"/>
<stop offset="0.995" stop-color="white" stop-opacity="0.099"/>
<stop offset="1" stop-color="white" stop-opacity="0.1"/>
</linearGradient>
</defs>
</svg>
