<svg width="34" height="34" viewBox="0 0 34 34" fill="none" xmlns="http://www.w3.org/2000/svg">
<circle cx="17" cy="17" r="17" fill="#ED1846"/>
<path d="M25.2984 11.7536C24.6487 10.9813 23.4491 10.6662 21.1581 10.6662H12.8418C10.4983 10.6662 9.27841 11.0016 8.6311 11.8239C8 12.6257 8 13.807 8 15.442V18.5582C8 21.7257 8.7488 23.3339 12.8418 23.3339H21.1581C23.1449 23.3339 24.2458 23.0559 24.958 22.3743C25.6884 21.6753 26 20.534 26 18.5582V15.442C26 13.7177 25.9512 12.5294 25.2984 11.7536ZM19.5561 17.4303L15.7797 19.404C15.6912 19.4503 15.5922 19.473 15.4924 19.4699C15.3926 19.4667 15.2952 19.4379 15.2098 19.3862C15.1244 19.3344 15.0537 19.2615 15.0047 19.1745C14.9557 19.0875 14.93 18.9892 14.9301 18.8894V14.9547C14.9301 14.855 14.9558 14.7569 15.0047 14.67C15.0536 14.5831 15.124 14.5102 15.2093 14.4585C15.2945 14.4067 15.3916 14.3777 15.4913 14.3744C15.591 14.3711 15.6898 14.3935 15.7783 14.4394L19.5547 16.4004C19.649 16.4493 19.728 16.5232 19.7832 16.6139C19.8384 16.7046 19.8677 16.8087 19.8678 16.9149C19.8679 17.0211 19.8389 17.1253 19.784 17.2162C19.729 17.3071 19.6502 17.3811 19.5561 17.4303Z" fill="white"/>
</svg>
